<?xml version="1.0" standalone="no"?>
<!DOCTYPE svg PUBLIC "-//W3C//DTD SVG 20010904//EN"
 "http://www.w3.org/TR/2001/REC-SVG-20010904/DTD/svg10.dtd">
<svg version="1.0" xmlns="http://www.w3.org/2000/svg"
 width="1024.000000pt" height="1024.000000pt" viewBox="0 0 1024.000000 1024.000000"
 preserveAspectRatio="xMidYMid meet">
<metadata>
Created by potrace 1.14, written by Peter Selinger 2001-2017
</metadata>
<g transform="translate(0.000000,1024.000000) scale(0.100000,-0.100000)"
fill="#000000" stroke="none">
<path d="M0 5120 l0 -5120 5120 0 5120 0 0 5120 0 5120 -5120 0 -5120 0 0
-5120z m5459 4869 c48 -6 129 -20 181 -31 52 -11 112 -22 133 -25 21 -3 40
-10 43 -14 3 -5 13 -9 22 -9 61 0 423 -146 527 -212 95 -61 166 -111 195 -137
19 -17 43 -33 53 -37 9 -3 17 -10 17 -15 0 -5 5 -9 11 -9 26 0 250 -210 315
-295 124 -162 262 -410 311 -560 27 -82 34 -107 48 -185 17 -101 18 -110 6
-110 -5 0 -15 26 -21 58 -13 64 -46 186 -59 217 -5 11 -22 52 -37 90 -57 141
-205 401 -236 413 -4 2 -8 8 -8 14 0 29 -192 231 -270 285 -25 17 -63 47 -85
67 -22 20 -46 36 -52 36 -7 0 -13 5 -13 10 0 6 -4 10 -10 10 -5 0 -42 24 -82
54 -98 74 -288 168 -433 216 -38 12 -79 26 -90 30 -51 19 -93 30 -111 30 -11
0 -24 4 -30 9 -8 8 -94 26 -230 49 -98 16 -352 21 -464 9 -201 -23 -453 -68
-569 -103 -39 -11 -50 -18 -40 -25 8 -5 24 -9 37 -9 37 0 5 -25 -43 -34 -22
-4 -45 -12 -51 -17 -7 -5 -21 -11 -31 -13 -44 -9 -110 -29 -133 -41 -14 -7
-43 -18 -65 -25 -22 -7 -51 -20 -65 -30 -14 -9 -54 -31 -90 -50 -36 -18 -83
-45 -104 -61 -22 -16 -48 -29 -57 -29 -10 0 -30 -5 -46 -11 l-28 -11 28 -10
c32 -11 35 -24 8 -33 -10 -3 -50 -36 -87 -73 -38 -37 -72 -66 -76 -65 -4 2 -8
-3 -8 -10 0 -6 -34 -37 -76 -67 -82 -60 -114 -90 -96 -90 7 0 12 -5 12 -10 0
-6 -6 -10 -12 -9 -25 3 -38 -1 -38 -12 0 -6 -17 -28 -39 -49 -29 -28 -36 -41
-29 -54 7 -12 2 -22 -17 -40 -15 -14 -24 -29 -21 -34 3 -4 -5 -24 -16 -43 -12
-19 -23 -40 -24 -47 -1 -8 -11 -23 -21 -34 -10 -11 -17 -21 -15 -22 4 -1 -12
-45 -33 -91 -45 -99 -74 -178 -69 -187 3 -5 -1 -17 -9 -26 -8 -9 -20 -42 -27
-72 -7 -30 -17 -60 -22 -67 -5 -6 -11 -29 -14 -50 -3 -21 -9 -67 -15 -103 -24
-153 -38 -408 -23 -423 3 -3 8 -30 10 -59 6 -99 46 -356 63 -401 4 -12 6 -28
4 -34 -9 -25 12 -13 63 35 67 64 150 92 269 92 106 0 175 -24 243 -86 28 -24
57 -44 66 -44 9 0 35 -9 59 -19 23 -11 59 -22 80 -26 20 -3 37 -11 38 -18 0
-8 2 -7 6 2 5 11 7 11 14 0 8 -11 12 -10 21 6 10 17 12 16 25 -20 8 -22 41
-139 74 -260 73 -270 75 -275 104 -275 13 0 25 6 28 13 8 21 16 104 32 317 7
107 18 207 24 221 5 14 24 33 43 43 18 9 40 20 48 25 8 5 26 13 40 19 119 48
200 100 200 128 0 8 7 17 16 21 8 3 13 11 10 18 -2 7 9 27 25 44 16 18 29 38
29 46 0 8 5 17 10 20 14 8 47 79 55 116 6 26 32 85 151 336 23 47 27 51 45 40
10 -6 19 -15 19 -19 0 -14 267 -267 283 -268 4 0 7 -6 7 -12 1 -12 21 -32 105
-103 17 -14 38 -25 47 -25 9 0 19 -4 22 -8 3 -5 -63 -8 -147 -8 -137 1 -158
-1 -210 -22 -70 -29 -207 -120 -207 -138 0 -25 18 -24 86 4 162 66 290 68 474
9 136 -45 163 -55 327 -126 100 -44 115 -41 138 25 13 39 13 39 20 12 5 -18
12 -25 22 -21 8 3 18 2 22 -4 10 -14 128 -62 172 -69 43 -7 69 7 69 37 0 20
24 26 35 9 3 -5 12 -7 20 -4 8 3 24 -4 36 -15 13 -12 31 -21 40 -21 10 0 22
-6 26 -12 9 -14 30 -27 111 -70 46 -24 53 -26 59 -12 5 12 9 8 17 -17 9 -26
16 -33 31 -30 11 1 74 5 140 8 153 6 154 5 130 -102 -9 -42 -23 -88 -31 -103
-7 -15 -14 -34 -14 -43 0 -8 -4 -19 -9 -25 -5 -5 -18 -38 -30 -72 -22 -65 -80
-185 -81 -168 0 5 10 38 21 72 37 111 5 174 -90 174 -66 0 -137 -37 -196 -102
-69 -76 -95 -131 -95 -204 0 -96 40 -144 102 -122 43 15 115 104 149 183 32
77 35 91 17 98 -8 4 -7 6 4 6 9 1 18 6 20 13 7 19 28 -1 28 -27 0 -28 -19
-122 -30 -150 -43 -107 -53 -136 -47 -141 12 -12 47 28 47 53 0 12 5 23 10 23
6 0 10 -5 10 -11 0 -21 -33 -145 -51 -193 -11 -27 -19 -54 -19 -60 0 -25 -111
-298 -158 -388 -85 -162 -227 -351 -346 -458 -22 -19 -45 -40 -52 -47 -9 -10
4 -28 62 -87 41 -42 74 -82 74 -91 0 -8 5 -15 10 -15 6 0 10 -5 10 -10 0 -6
11 -28 25 -50 46 -73 38 -100 -65 -217 -70 -79 -107 -112 -163 -144 -39 -23
-99 -58 -132 -79 -78 -50 -138 -84 -202 -117 -48 -25 -66 -46 -45 -55 4 -1 39
-39 77 -83 39 -44 94 -101 123 -128 28 -27 52 -55 52 -62 0 -8 6 -26 14 -42 8
-15 26 -62 41 -103 25 -68 67 -172 117 -290 10 -25 24 -56 30 -70 24 -57 41
-96 49 -112 5 -10 9 -22 9 -28 0 -5 11 -33 24 -62 24 -53 54 -121 84 -188 8
-19 65 -138 127 -265 131 -268 141 -290 150 -329 8 -39 33 -69 92 -114 26 -20
50 -39 53 -42 3 -3 32 -26 65 -50 33 -25 80 -67 105 -95 25 -27 64 -70 87 -95
24 -25 43 -50 43 -56 0 -17 78 -94 108 -107 30 -13 124 -68 132 -77 3 -3 21
-14 40 -24 19 -11 55 -36 80 -56 53 -43 92 -70 101 -70 4 0 12 21 18 47 11 44
41 138 115 368 18 55 38 120 45 145 8 25 17 54 21 65 4 11 24 74 45 140 20 66
52 170 71 230 19 61 43 139 54 175 11 36 33 108 49 160 17 52 33 109 37 125 4
17 10 35 14 40 4 6 10 24 14 40 6 26 73 245 96 315 5 14 23 72 40 130 18 58
40 130 50 160 10 30 21 71 25 90 4 19 11 40 15 45 4 6 10 24 14 40 4 17 17 64
30 105 13 41 31 102 41 135 10 33 26 87 36 120 41 128 49 153 80 255 50 167
73 199 145 200 39 0 43 3 75 57 19 31 47 66 62 77 l28 21 51 -28 c52 -29 399
-256 408 -267 3 -3 43 -31 90 -62 47 -31 132 -89 190 -129 58 -39 114 -77 125
-83 92 -52 119 -87 130 -167 11 -76 -26 -267 -75 -394 -4 -11 -13 -40 -20 -65
-6 -25 -15 -52 -20 -60 -4 -9 -11 -31 -15 -50 -4 -19 -11 -41 -15 -50 -4 -8
-13 -33 -19 -55 -7 -22 -16 -49 -21 -60 -4 -11 -13 -40 -20 -65 -7 -25 -16
-54 -20 -65 -4 -11 -27 -81 -50 -155 -23 -74 -46 -144 -50 -155 -4 -11 -22
-67 -40 -125 -18 -58 -38 -120 -46 -138 -8 -18 -14 -41 -14 -52 0 -10 -4 -22
-10 -25 -5 -3 -10 -19 -10 -35 0 -16 -4 -32 -10 -35 -5 -3 -10 -16 -10 -29 0
-12 -4 -26 -8 -32 -5 -5 -19 -43 -31 -84 -13 -41 -27 -83 -32 -92 -5 -10 -9
-25 -9 -33 0 -8 -4 -23 -9 -33 -5 -9 -32 -91 -61 -182 -29 -91 -56 -174 -60
-185 -5 -11 -32 -94 -60 -185 -28 -91 -56 -174 -60 -185 -5 -11 -43 -128 -86
-260 -42 -132 -87 -269 -100 -305 -13 -36 -24 -72 -24 -81 0 -8 -4 -19 -9 -25
-4 -5 -14 -31 -21 -59 -7 -27 -16 -54 -20 -60 -3 -5 -15 -39 -25 -75 -10 -36
-22 -69 -27 -74 -4 -6 -8 -19 -8 -29 0 -10 -19 -57 -41 -105 -43 -89 -103
-163 -152 -189 -35 -18 -181 -43 -249 -43 l-48 0 -1 -47 c-1 -27 -2 -52 -4
-58 -1 -5 -3 -20 -3 -32 -1 -12 -11 -24 -21 -28 -10 -3 -35 -21 -56 -40 -20
-19 -40 -35 -45 -35 -18 0 3 26 49 62 47 35 49 38 56 103 4 37 3 71 -2 76 -13
13 -97 23 -127 15 -14 -3 -26 -13 -26 -21 0 -19 -13 -19 -48 -1 -28 14 -116
25 -217 27 -33 1 -67 5 -76 10 -9 5 -48 10 -87 12 -63 3 -71 1 -76 -16 -5 -19
-12 -19 -126 -12 -66 4 -133 13 -148 20 -19 10 -82 15 -219 16 -106 2 -193 5
-192 8 4 31 19 45 54 48 40 3 58 13 38 20 -22 8 -14 23 13 23 14 0 23 4 20 8
-3 5 -33 7 -68 5 -35 -1 -764 -3 -1621 -3 l-1558 0 6 -23 c8 -26 43 -56 66
-57 25 0 28 -9 13 -38 -13 -26 -13 -27 11 -32 19 -4 22 -9 15 -20 -8 -12 -13
-11 -33 8 l-25 23 -23 -23 c-47 -46 -202 -174 -245 -201 -41 -27 -50 -47 -19
-47 14 0 70 -59 77 -82 4 -11 8 -11 22 1 9 8 19 11 23 7 3 -3 1 -6 -5 -6 -19
0 -14 -34 8 -48 17 -10 23 -9 40 8 11 11 28 20 37 20 13 0 14 -3 6 -11 -18
-18 -5 -41 17 -29 13 7 21 6 29 -4 6 -7 22 -11 36 -8 20 3 24 1 19 -12 -5 -13
1 -16 35 -16 23 0 41 2 41 5 0 3 -11 18 -25 33 -14 15 -25 31 -25 37 0 9 -31
48 -81 102 -28 31 -4 41 29 12 15 -13 28 -27 30 -31 2 -5 10 -8 18 -8 8 0 14
-6 14 -14 0 -7 9 -16 21 -19 14 -4 18 -10 13 -18 -5 -9 -2 -10 10 -6 10 4 24
-1 36 -13 11 -11 24 -20 29 -20 5 0 21 -13 34 -30 14 -16 35 -30 46 -30 26 0
26 0 -2 52 -57 105 -90 158 -98 158 -5 0 -9 5 -9 10 0 6 16 10 35 10 37 0 47
-15 18 -24 -10 -3 -6 -4 10 -2 23 3 27 0 21 -16 -5 -17 -3 -19 15 -13 17 5 21
2 21 -18 0 -29 35 -73 45 -57 5 8 17 2 36 -16 15 -15 26 -30 24 -34 -7 -12 20
-19 45 -13 17 5 21 2 18 -13 -2 -14 4 -20 21 -22 13 -2 21 1 17 6 -3 5 4 18
15 28 17 16 22 16 29 4 5 -8 15 -15 22 -15 7 -1 12 -6 10 -13 -1 -8 12 -12 38
-12 22 0 40 4 40 9 0 5 -27 46 -61 91 -33 45 -58 84 -56 86 10 10 37 -10 37
-27 0 -10 5 -19 10 -19 6 0 10 -7 10 -17 0 -9 3 -14 6 -10 7 6 64 -56 64 -70
0 -5 9 -9 20 -10 11 -1 20 1 20 5 0 5 -27 49 -72 115 -10 15 -16 33 -12 39 4
7 3 8 -4 4 -28 -17 -9 41 31 98 50 70 89 137 84 142 -8 8 -47 -10 -47 -22 0
-8 -7 -14 -15 -14 -8 0 -17 -11 -21 -25 -3 -14 -14 -31 -23 -38 -23 -18 -71
-84 -65 -90 3 -3 -4 -15 -16 -27 -20 -20 -23 -20 -46 -5 -23 15 -29 15 -79 -2
-36 -12 -53 -22 -50 -31 3 -9 -5 -7 -25 5 -17 9 -30 24 -30 32 0 11 3 11 18
-2 22 -20 32 -22 32 -6 0 11 94 127 152 187 l31 32 -27 0 c-32 0 -52 -10 -111
-54 -23 -17 -55 -40 -70 -51 -16 -11 -44 -32 -63 -47 -32 -26 -42 -28 -122
-28 -52 0 -105 -6 -130 -15 -53 -19 -56 -19 -64 0 -4 10 15 25 66 50 39 20
119 68 176 106 l105 70 415 -5 c228 -3 416 -7 419 -9 2 -3 -5 -49 -16 -104
-33 -161 -40 -323 -13 -323 5 0 16 20 26 45 10 24 27 52 37 61 16 15 18 14 32
-8 32 -52 75 -138 69 -139 -4 -1 -508 -3 -1120 -4 l-1113 -3 6 32 c9 42 19 50
44 37 18 -10 21 -9 21 7 0 10 22 34 50 55 60 45 86 83 101 153 7 33 23 64 43
85 17 18 31 40 31 48 0 18 51 17 72 -1 7 -6 23 -8 35 -5 11 3 31 1 42 -6 12
-6 28 -11 36 -12 8 0 16 -10 18 -22 5 -32 29 -49 51 -36 14 9 21 7 34 -7 14
-17 14 -20 -4 -42 -15 -16 -17 -24 -8 -27 7 -2 15 1 17 7 2 7 8 12 13 12 7 0
155 93 167 104 6 7 -57 66 -80 75 -32 12 -74 -8 -70 -32 2 -9 -1 -17 -5 -17
-9 1 -73 83 -73 94 0 3 -11 23 -23 44 -64 101 -127 234 -118 246 10 12 95 56
186 96 28 12 68 31 89 41 22 11 42 19 44 19 12 0 -25 -33 -47 -41 -23 -9 -23
-10 -6 -23 17 -12 16 -14 -18 -25 -57 -19 -63 -71 -8 -71 33 0 51 16 51 47 0
13 5 23 10 23 6 0 10 -12 10 -26 0 -25 3 -26 33 -21 19 3 40 1 48 -4 11 -7 9
-9 -8 -9 -23 0 -56 -37 -46 -53 3 -5 8 -6 12 0 12 18 40 22 52 7 7 -9 21 -13
31 -10 15 3 17 2 8 -9 -12 -15 -6 -35 11 -35 5 0 9 7 9 15 0 8 4 15 9 15 12 0
24 -37 16 -49 -8 -13 -18 -13 425 -12 491 1 821 9 880 21 60 12 569 20 576 9
4 -7 92 -2 102 7 2 1 -10 45 -27 98 -17 53 -31 103 -31 112 0 8 -9 36 -20 62
l-20 47 -103 0 c-130 0 -201 25 -242 86 -25 38 -25 43 -16 108 9 67 44 147 96
216 42 57 153 160 195 183 50 26 81 27 160 5 33 -9 63 -13 67 -9 13 13 -33 59
-72 73 -75 26 -159 -15 -272 -129 -89 -91 -104 -109 -149 -193 -51 -94 -74
-174 -81 -282 -3 -50 -9 -97 -13 -104 -5 -7 -31 -12 -71 -11 -34 1 -67 -2 -73
-6 -26 -17 -91 -9 -119 15 -33 27 -37 27 -82 9 -32 -14 -49 -46 -25 -46 6 0
10 -7 10 -16 0 -24 -72 -15 -203 26 -17 5 -39 5 -53 -1 -14 -5 -56 -9 -94 -9
-38 0 -72 -5 -75 -10 -4 -6 -10 -8 -14 -6 -4 3 -18 -4 -29 -15 -20 -18 -26
-17 -23 3 0 3 -15 5 -34 3 -19 -2 -35 1 -35 7 0 5 -10 8 -23 6 -12 -1 -33 5
-47 15 -13 9 -30 17 -36 17 -6 0 -19 9 -29 20 -10 11 -26 20 -35 20 -21 0 -43
-24 -32 -35 4 -5 0 -6 -9 -3 -9 4 -22 2 -30 -3 -10 -6 -4 -9 20 -9 25 0 32 3
27 15 -10 26 3 16 19 -14 11 -22 29 -34 77 -50 61 -21 43 -22 -37 -3 -53 13
-186 55 -290 92 -11 4 -38 13 -60 19 -22 7 -51 17 -65 23 -14 6 -35 15 -47 19
-13 5 -33 13 -45 18 -13 5 -45 17 -73 27 -27 10 -54 20 -60 24 -5 4 -32 15
-60 25 -27 10 -65 27 -83 37 -18 10 -39 18 -47 18 -19 0 -68 51 -114 119 -21
31 -130 148 -241 261 -112 113 -213 219 -225 235 -12 17 -34 64 -50 105 -15
41 -36 93 -45 115 -33 76 -49 147 -65 290 -7 66 -24 183 -38 260 -28 155 -37
305 -20 326 13 17 41 129 93 379 23 107 50 232 61 277 10 45 19 88 19 96 0 29
-221 33 -602 11 l-108 -6 0 138 c0 77 -2 148 -5 159 -4 14 15 44 66 105 39 47
76 92 83 100 131 167 113 152 281 236 l155 78 -26 21 -26 21 11 104 c38 354
41 275 -23 710 -20 132 -23 104 38 410 46 236 80 365 97 375 5 4 9 15 9 25 0
27 57 88 98 105 44 19 91 19 116 0 11 -8 29 -15 40 -15 11 0 58 -11 105 -25
48 -14 111 -33 141 -41 126 -36 420 -140 434 -154 6 -6 19 -10 31 -10 12 0 25
-4 31 -8 5 -5 29 -15 54 -22 25 -8 50 -17 55 -21 6 -4 44 -19 85 -33 41 -15
88 -33 105 -41 16 -7 95 -39 175 -71 80 -31 169 -68 198 -81 85 -37 106 -28
53 26 -30 31 -203 273 -225 316 -8 15 -40 66 -72 115 -48 71 -65 89 -89 93
-260 46 -468 200 -549 406 -35 90 -50 265 -28 336 7 22 4 44 -10 85 -80 229
-107 539 -78 897 15 183 65 409 116 528 67 156 126 274 166 332 20 30 27 50
23 66 -5 20 15 45 127 162 73 76 164 163 203 193 38 30 80 65 93 78 21 22 165
112 312 194 36 20 81 46 101 57 20 12 45 26 55 32 25 13 112 51 144 61 14 5
56 20 95 35 152 56 364 104 580 129 73 8 347 5 424 -5z m1901 -2119 c-22 -248
-110 -551 -190 -650 -18 -23 -17 -19 5 45 14 39 29 79 34 90 85 200 139 490
129 689 l-6 101 20 -75 c18 -68 18 -87 8 -200z m-1090 -462 c0 -5 -4 -8 -10
-8 -5 0 -10 10 -10 23 0 18 2 19 10 7 5 -8 10 -18 10 -22z m-20 -28 c0 -5 -11
-10 -24 -10 -14 0 -28 5 -31 10 -4 6 7 10 24 10 17 0 31 -4 31 -10z m426 -777
c-10 -10 -19 5 -10 18 6 11 8 11 12 0 2 -7 1 -15 -2 -18z m-5040 -2835 c6 -9
7 -9 -63 -12 -39 -2 -53 1 -53 11 0 10 15 13 55 12 31 -1 58 -6 61 -11z m44 2
c0 -5 -7 -10 -15 -10 -8 0 -15 5 -15 10 0 6 7 10 15 10 8 0 15 -4 15 -10z
m313 -17 c-7 -2 -19 -2 -25 0 -7 3 -2 5 12 5 14 0 19 -2 13 -5z m150 0 c-7 -2
-19 -2 -25 0 -7 3 -2 5 12 5 14 0 19 -2 13 -5z m187 -162 c0 -70 -16 -144 -44
-204 -14 -28 -27 -72 -31 -97 -25 -187 -40 -224 -97 -250 -24 -11 -53 -20 -65
-20 -21 0 -40 -16 -30 -26 2 -2 23 -8 46 -12 l42 -7 3 -113 c2 -62 -1 -115 -6
-118 -4 -3 -6 -9 -4 -13 3 -4 -29 -8 -71 -10 -68 -2 -75 0 -63 14 7 9 28 15
51 15 44 0 59 19 50 65 -5 25 -11 31 -39 33 -30 3 -47 22 -19 22 19 0 60 47
52 59 -3 6 -19 11 -36 11 -24 0 -29 4 -29 25 0 30 -20 33 -44 6 -14 -15 -14
-20 -2 -30 7 -6 16 -20 19 -31 4 -16 2 -17 -17 -8 -49 26 -52 26 -64 7 -7 -10
-12 -25 -12 -33 0 -8 -5 -18 -11 -21 -12 -8 -7 45 7 66 7 13 -3 12 -206 -11
-52 -6 -165 -11 -250 -11 -140 -1 -158 -3 -186 -22 -36 -23 -75 -82 -122 -182
-35 -73 -75 -153 -123 -244 -32 -60 -37 -99 -14 -107 8 -4 15 -14 15 -24 0
-18 95 -131 138 -164 23 -18 23 -17 77 39 30 31 55 61 55 65 0 5 -17 10 -37
12 l-38 3 -3 139 c-4 158 0 194 27 223 10 11 22 30 26 43 6 20 5 22 -11 15
-37 -15 -54 -17 -54 -8 0 10 43 33 62 33 12 0 37 30 37 45 0 6 -6 2 -13 -8
-12 -15 -15 -15 -25 -3 -10 12 -7 18 13 31 33 22 55 13 62 -25 5 -21 12 -30
25 -30 16 0 18 -5 13 -25 -6 -23 -3 -25 25 -25 43 0 131 31 256 90 58 28 111
50 118 50 6 -1 30 -7 51 -15 36 -12 41 -12 52 3 10 13 12 -3 13 -88 1 -57 5
-108 10 -113 19 -19 31 27 36 143 3 68 10 129 15 134 6 6 10 6 11 0 0 -5 3
-47 6 -94 3 -47 6 -95 7 -107 1 -29 8 -29 46 3 52 44 48 16 -5 -32 -27 -24
-54 -44 -58 -44 -5 0 -15 -6 -23 -14 -7 -8 -19 -17 -26 -19 -10 -4 -10 -8 1
-15 12 -8 12 -14 3 -25 -7 -8 -20 -39 -28 -68 -14 -45 -15 -79 -9 -209 4 -85
9 -223 10 -306 3 -176 10 -217 33 -212 12 2 19 17 23 48 3 25 9 57 13 73 7 24
5 27 -14 27 -20 0 -22 3 -15 33 4 17 10 73 14 122 6 96 14 120 37 111 8 -3 14
-1 14 5 0 6 5 7 10 4 6 -3 10 -41 10 -83 0 -46 6 -88 14 -103 7 -15 11 -39 9
-54 -5 -21 1 -32 27 -54 23 -19 30 -30 22 -35 -20 -12 -13 -28 9 -21 l21 7
-21 -21 c-15 -15 -28 -19 -51 -15 -29 6 -36 -1 -31 -30 1 -4 -4 -14 -10 -22
-9 -11 -15 -11 -25 -3 -17 14 -34 3 -34 -21 0 -10 -7 -21 -16 -24 -11 -4 -14
-13 -11 -28 4 -12 2 -27 -4 -34 -9 -11 -29 -171 -22 -178 2 -2 38 10 79 26 71
27 110 30 85 5 -7 -7 -7 -16 1 -30 8 -16 7 -23 -8 -34 -13 -10 -19 -27 -20
-58 -1 -38 2 -44 22 -49 22 -6 24 -12 24 -67 0 -55 3 -64 32 -92 l31 -32 -29
-7 c-16 -3 -60 -14 -97 -23 -38 -9 -71 -23 -74 -31 -3 -8 -11 -14 -19 -14 -20
0 -33 -30 -28 -68 2 -18 5 -85 7 -148 4 -128 0 -136 -52 -114 -16 6 -60 39
-98 72 -61 53 -101 78 -198 119 -16 7 -51 11 -77 10 -33 -2 -48 1 -48 10 0 7
-3 10 -6 6 -10 -9 -12 -107 -2 -113 13 -8 -1 -24 -23 -24 -17 0 -19 8 -21 103
0 56 0 113 1 127 1 17 -8 31 -28 45 -16 11 -62 52 -103 90 -86 80 -278 243
-313 265 -21 13 -26 12 -62 -12 -21 -14 -65 -41 -98 -58 -110 -60 -123 -74
-88 -87 9 -3 31 -20 48 -37 64 -61 150 -132 254 -210 100 -75 196 -164 285
-265 40 -44 104 -80 144 -81 12 0 22 -4 22 -10 0 -16 -51 -11 -95 9 -23 10
-81 60 -135 116 -52 53 -157 144 -234 202 -76 58 -162 126 -190 152 -116 103
-138 121 -146 121 -14 0 -21 17 -14 35 6 14 114 95 128 95 2 0 28 16 57 35 29
19 58 37 64 39 12 6 -19 32 -109 92 -105 70 -176 137 -176 164 0 15 51 47 215
135 39 21 77 44 86 51 8 8 19 14 24 14 11 0 149 104 198 149 20 19 37 39 37
45 -1 6 -37 49 -82 96 -85 90 -98 112 -98 164 0 27 86 209 217 458 22 43 92
101 115 95 30 -8 48 3 48 29 0 27 3 28 32 13 l21 -11 -22 -17 c-22 -17 -16
-17 131 -15 84 1 196 10 248 19 52 8 121 18 154 22 44 5 65 13 89 34 26 24 28
29 14 35 -9 3 -36 2 -61 -4 -24 -5 -66 -7 -91 -5 -26 2 -52 0 -59 -5 -6 -5
-45 -10 -86 -11 -41 -1 -120 -6 -175 -10 -142 -11 -136 -20 -134 193 1 166 0
171 -20 174 -28 4 -27 20 1 24 16 2 24 12 29 38 4 19 3 39 -2 44 -5 6 -9 32
-9 58 0 38 4 50 18 54 9 3 24 9 33 14 10 5 20 5 26 -1 5 -5 109 -10 239 -10
195 0 253 3 389 24 229 35 215 37 215 -22z m-800 -841 c0 -5 -2 -10 -4 -10 -3
0 -8 5 -11 10 -3 6 -1 10 4 10 6 0 11 -4 11 -10z m623 -115 c-3 -13 -9 -22
-14 -19 -13 8 -11 -9 6 -49 19 -46 19 -47 -4 -47 -26 0 -38 106 -14 132 20 23
32 15 26 -17z m-964 -58 c-45 -86 -138 -227 -150 -227 -12 0 4 30 86 167 82
137 89 146 93 133 2 -6 -11 -39 -29 -73z m861 -47 c0 -12 -28 -25 -36 -17 -9
9 6 27 22 27 8 0 14 -5 14 -10z m55 -650 c7 -22 6 -23 -9 -8 -9 9 -16 25 -16
34 0 23 15 7 25 -26z m15 -360 c0 -5 -9 -10 -21 -10 -11 0 -17 5 -14 10 3 6
13 10 21 10 8 0 14 -4 14 -10z m1210 -440 c0 -5 -7 -10 -15 -10 -8 0 -15 5
-15 10 0 6 7 10 15 10 8 0 15 -4 15 -10z m708 -97 c-10 -2 -28 -2 -40 0 -13 2
-5 4 17 4 22 1 32 -1 23 -4z m-591 -73 c13 -14 23 -30 23 -37 0 -7 3 -13 8
-13 4 0 12 -11 18 -24 9 -20 9 -26 -2 -30 -7 -3 -16 -1 -19 4 -4 6 -1 10 6 10
7 0 3 10 -9 23 -12 13 -22 31 -22 40 0 9 -3 17 -7 17 -10 0 -53 62 -53 75 0 5
8 -2 17 -15 10 -14 28 -36 40 -50z m-122 50 c3 -5 2 -10 -4 -10 -5 0 -13 5
-16 10 -3 6 -2 10 4 10 5 0 13 -4 16 -10z m91 -77 c-7 -7 -26 7 -26 19 0 6 6
6 15 -2 9 -7 13 -15 11 -17z m-1941 -53 c18 -8 17 -9 -7 -9 -15 -1 -30 4 -33
9 -7 12 12 12 40 0z m4902 -113 c3 -4 18 -6 32 -6 25 1 25 2 -4 9 l-30 8 27 1
c15 0 30 -4 33 -9 8 -12 37 -9 47 5 4 6 8 2 8 -8 0 -16 -20 -17 -335 -16 -194
1 -338 5 -341 10 -3 6 77 8 204 6 116 -2 230 -1 254 2 53 7 96 6 105 -2z m313
3 c0 -5 -4 -10 -9 -10 -6 0 -13 5 -16 10 -3 6 1 10 9 10 9 0 16 -4 16 -10z
m-904 -7 c-9 -9 -158 -14 -152 -5 2 4 39 8 81 9 43 1 75 -1 71 -4z m-289 -9
c-3 -3 -12 -4 -19 -1 -8 3 -5 6 6 6 11 1 17 -2 13 -5z m56 -1 c-7 -2 -19 -2
-25 0 -7 3 -2 5 12 5 14 0 19 -2 13 -5z m1059 -38 c6 -28 -6 -34 -16 -9 -8 22
-7 34 3 34 5 0 11 -11 13 -25z m-1710 -71 c4 -3 -7 -25 -23 -48 -15 -24 -37
-63 -48 -87 -11 -24 -26 -52 -34 -61 -14 -18 -57 -25 -57 -10 0 5 18 46 40 91
22 45 40 88 40 95 0 8 6 17 13 19 17 8 63 8 69 1z m154 -5 c3 -6 2 -14 -3 -18
-5 -3 -13 -13 -16 -21 -4 -8 -21 -37 -37 -65 -17 -27 -36 -60 -42 -72 -6 -13
-18 -25 -27 -27 -37 -11 -91 -18 -91 -11 0 3 20 32 43 63 24 31 57 77 73 102
16 25 33 48 39 52 15 12 53 9 61 -3z m174 -4 c0 -3 -16 -29 -35 -58 -19 -28
-35 -55 -35 -60 0 -11 -91 -147 -98 -147 -4 0 -18 9 -30 18 l-24 18 21 38 c12
21 30 49 40 64 10 15 33 51 51 80 30 48 35 52 71 52 21 0 39 -2 39 -5z m430
-5 c0 -13 -20 -13 -40 0 -12 8 -9 10 13 10 15 0 27 -4 27 -10z m-1986 -25 c-4
-8 -10 -15 -16 -15 -5 0 -7 4 -3 9 3 5 -3 12 -12 14 -11 3 -8 5 9 6 20 1 26
-3 22 -14z m-2139 -25 c10 -11 26 -20 35 -20 9 0 27 -13 39 -29 20 -26 26 -28
48 -18 18 8 36 8 66 0 23 -6 57 -9 74 -6 18 3 41 2 50 -3 20 -9 17 -8 141 -24
51 -6 99 -9 106 -7 8 3 30 2 50 -3 21 -4 36 -4 36 1 0 14 27 11 43 -6 8 -8 16
-12 18 -10 2 2 24 4 49 6 25 2 48 7 51 12 10 14 29 -1 29 -22 0 -17 -10 -23
-108 -70 -49 -23 -50 -41 -6 -56 16 -5 36 -17 46 -25 37 -33 48 -40 63 -40 8
0 15 -4 15 -9 0 -4 28 -12 62 -15 92 -11 53 -26 -67 -26 -55 0 -174 9 -265 20
-172 20 -271 42 -395 90 -50 19 -93 30 -116 30 -44 0 -85 34 -92 76 -10 57 -8
174 1 174 5 0 17 -9 27 -20z m5982 -2 c6 -7 13 -26 17 -43 7 -26 9 -27 18 -12
6 12 16 16 29 12 23 -8 26 10 3 19 -8 3 -12 11 -8 17 8 13 192 2 210 -12 24
-20 26 -79 4 -147 -12 -37 -25 -75 -31 -84 -5 -10 -9 -26 -9 -36 0 -11 -8 -25
-17 -33 -32 -25 -111 -61 -128 -57 -9 2 10 17 49 37 36 18 67 40 70 48 7 18
-52 69 -73 65 -9 -2 -24 -11 -33 -19 -15 -13 -19 -12 -46 12 -17 15 -31 34
-31 44 -1 67 -7 85 -31 91 -15 4 -25 13 -24 23 0 9 1 33 2 52 2 36 12 44 29
23z m-5870 -40 c-3 -8 -6 -5 -6 6 -1 11 2 17 5 13 3 -3 4 -12 1 -19z m1813
-62 c-5 -5 -15 -3 -24 6 -20 20 -9 30 15 15 11 -7 15 -15 9 -21z m1936 -23
c-44 -67 -60 -81 -98 -88 -43 -8 -54 11 -13 21 14 3 25 12 25 20 0 8 5 14 11
14 6 0 17 7 25 15 9 8 12 15 7 15 -4 0 4 8 17 17 14 9 29 24 34 32 6 10 11 11
13 4 2 -6 -7 -29 -21 -50z m-1476 32 c-14 -17 -30 -20 -30 -6 0 5 8 12 18 14
9 3 19 5 21 6 2 0 -2 -6 -9 -14z m1845 -5 c3 -5 15 -10 25 -10 10 0 20 -3 22
-7 2 -5 21 -21 42 -37 22 -17 35 -31 29 -33 -6 -2 -40 17 -75 42 -75 56 -74
55 -60 55 6 0 14 -4 17 -10z m-2355 -10 c0 -5 -7 -10 -16 -10 -8 0 -12 5 -9
10 3 6 10 10 16 10 5 0 9 -4 9 -10z m434 1 c3 -5 -1 -11 -9 -14 -9 -4 -12 -1
-8 9 6 16 10 17 17 5z m3616 -1 c0 -5 -4 -10 -10 -10 -5 0 -10 5 -10 10 0 6 5
10 10 10 6 0 10 -4 10 -10z m-4090 -30 c0 -5 6 -10 14 -10 21 0 36 -24 29 -48
-6 -25 -23 -30 -23 -7 0 8 4 15 10 15 5 0 7 7 3 16 -3 8 -11 13 -18 10 -13 -5
-35 12 -35 26 0 4 5 8 10 8 6 0 10 -4 10 -10z m4076 2 c6 -4 18 -22 27 -41 16
-32 16 -36 1 -53 -31 -34 -44 -23 -37 33 4 38 2 53 -8 60 -8 5 -9 9 -4 9 6 0
15 -4 21 -8z m-4094 -64 c-7 -7 -12 -8 -12 -2 0 14 12 26 19 19 2 -3 -1 -11
-7 -17z m2153 12 c3 -5 1 -10 -4 -10 -6 0 -11 5 -11 10 0 6 2 10 4 10 3 0 8
-4 11 -10z m-1535 -20 c0 -17 -3 -18 -25 -8 -19 8 -22 14 -13 20 22 14 38 9
38 -12z m1146 -17 c-10 -10 -19 5 -10 18 6 11 8 11 12 0 2 -7 1 -15 -2 -18z
m464 -2 c0 -11 -93 -6 -97 5 -2 7 8 9 26 6 16 -2 32 1 36 8 5 8 10 8 21 -1 8
-6 14 -14 14 -18z m1758 11 c2 -7 -3 -12 -12 -12 -9 0 -16 7 -16 16 0 17 22
14 28 -4z m-3898 -12 c0 -5 -4 -10 -10 -10 -5 0 -10 5 -10 10 0 6 5 10 10 10
6 0 10 -4 10 -10z m425 -20 c3 -5 1 -10 -4 -10 -6 0 -11 5 -11 10 0 6 2 10 4
10 3 0 8 -4 11 -10z m130 0 c3 -5 -1 -10 -9 -10 -8 0 -18 5 -21 10 -3 6 1 10
9 10 8 0 18 -4 21 -10z m-552 -27 c-7 -2 -13 -11 -13 -19 0 -8 -7 -14 -15 -14
-8 0 -15 2 -15 4 0 10 32 36 43 35 9 0 8 -2 0 -6z m582 -10 c-1 -10 2 -24 8
-30 7 -9 5 -13 -7 -13 -10 0 -14 5 -11 10 3 6 1 10 -5 10 -8 0 -8 6 0 20 13
25 19 26 15 3z m3530 -30 c-15 -16 -34 -38 -42 -50 -9 -13 -24 -23 -34 -23
-27 0 -24 15 7 35 14 9 40 30 57 46 38 37 50 29 12 -8z m-279 -38 c-1 -22 -22
-42 -33 -31 -4 4 26 56 32 56 2 0 2 -11 1 -25z m99 -14 c7 -12 -12 -24 -25
-16 -11 7 -4 25 10 25 5 0 11 -4 15 -9z m-230 -11 c3 -5 -3 -10 -14 -10 -12 0
-21 5 -21 10 0 6 6 10 14 10 8 0 18 -4 21 -10z m-1960 -10 c3 -6 -1 -7 -9 -4
-18 7 -21 14 -7 14 6 0 13 -4 16 -10z m1822 4 c-3 -3 -12 -4 -19 -1 -8 3 -5 6
6 6 11 1 17 -2 13 -5z m-2049 -11 c-27 -2 -69 -2 -95 0 -27 2 -5 3 47 3 52 0
74 -1 48 -3z"/>
<path d="M5230 7213 c-36 -9 -57 -18 -47 -21 10 -2 32 1 49 7 37 13 128 15
128 2 0 -5 -12 -12 -26 -15 -38 -10 -119 -90 -144 -144 -33 -69 -39 -186 -12
-237 96 -188 337 -109 396 129 12 50 25 15 28 -79 3 -85 4 -89 18 -65 11 18
15 55 15 135 0 103 -2 113 -29 163 -30 53 -64 85 -124 116 -48 25 -173 29
-252 9z"/>
<path d="M5135 7180 c-3 -5 -2 -10 4 -10 5 0 13 5 16 10 3 6 2 10 -4 10 -5 0
-13 -4 -16 -10z"/>
<path d="M5020 7109 c0 -5 5 -7 10 -4 6 3 10 8 10 11 0 2 -4 4 -10 4 -5 0 -10
-5 -10 -11z"/>
<path d="M3857 6389 c7 -7 15 -10 18 -7 3 3 -2 9 -12 12 -14 6 -15 5 -6 -5z"/>
<path d="M3158 6143 c6 -2 18 -2 25 0 6 3 1 5 -13 5 -14 0 -19 -2 -12 -5z"/>
<path d="M3213 6134 c29 -9 19 -24 -15 -24 -23 0 -29 -3 -19 -9 8 -5 12 -18 8
-30 -3 -14 0 -21 9 -21 8 0 14 -4 14 -10 0 -5 -7 -10 -15 -10 -8 0 -15 -7 -15
-15 0 -19 -30 -19 -56 0 -25 19 -34 19 -34 0 0 -8 8 -15 18 -15 10 0 22 -4 27
-9 10 -9 174 -82 270 -120 23 -9 24 -10 205 -85 74 -31 141 -56 148 -56 6 0
12 -4 12 -8 0 -4 17 -14 38 -21 20 -8 60 -24 87 -36 178 -79 300 -124 310
-114 7 8 6 13 -2 16 -7 2 -9 11 -6 19 3 8 1 20 -5 27 -6 7 -9 25 -8 40 3 29
-8 45 -19 27 -10 -16 -28 -12 -21 5 4 11 -1 15 -19 15 -18 0 -27 8 -36 34 -11
32 -15 34 -43 29 -17 -3 -28 -2 -23 2 4 5 -6 14 -23 21 -16 7 -30 18 -30 24 0
14 37 13 42 -1 2 -7 11 -10 19 -7 27 9 -43 36 -73 27 -30 -8 -36 -1 -16 19 9
9 9 12 -3 12 -8 0 -20 -5 -27 -12 -6 -6 -15 -8 -19 -3 -5 4 -2 10 5 12 21 8
13 23 -13 23 -14 0 -25 4 -25 9 0 5 -12 12 -27 15 -24 6 -99 38 -155 67 -10 5
-23 9 -29 9 -7 0 -41 14 -76 30 -34 17 -69 30 -76 30 -7 0 -22 7 -33 15 -10 8
-29 15 -41 15 -13 0 -23 5 -23 10 0 6 -11 10 -24 10 -14 0 -28 5 -32 11 -6 11
-44 8 -76 -6 -11 -4 -18 -3 -18 4 0 6 10 11 22 11 35 0 8 17 -37 23 -22 3 -32
3 -22 1z m12 -54 c3 -5 1 -10 -4 -10 -6 0 -11 5 -11 10 0 6 2 10 4 10 3 0 8
-4 11 -10z m-10 -90 c-3 -5 -11 -10 -16 -10 -6 0 -7 5 -4 10 3 6 11 10 16 10
6 0 7 -4 4 -10z m85 -40 c0 -5 -2 -10 -4 -10 -3 0 -8 5 -11 10 -3 6 -1 10 4
10 6 0 11 -4 11 -10z m766 -227 c-10 -10 -19 5 -10 18 6 11 8 11 12 0 2 -7 1
-15 -2 -18z"/>
<path d="M3000 6060 c14 -11 30 -20 35 -20 6 0 -1 9 -15 20 -14 11 -29 20 -35
20 -5 0 1 -9 15 -20z"/>
<path d="M3135 6043 c11 -3 24 -10 28 -17 6 -7 7 -6 4 4 -2 8 -14 16 -28 17
-19 1 -20 1 -4 -4z"/>
<path d="M4020 6041 c0 -6 9 -8 19 -6 18 3 19 1 6 -35 -13 -36 -12 -37 7 -32
18 4 19 3 8 -18 -11 -21 -10 -22 9 -17 18 4 20 3 11 -8 -9 -11 -7 -20 9 -41
12 -15 21 -31 21 -36 0 -6 14 -30 30 -55 17 -24 30 -46 30 -48 0 -2 10 -15 23
-29 12 -13 31 -41 42 -63 11 -21 24 -42 30 -46 7 -6 6 -10 -2 -14 -19 -7 -16
-26 3 -19 10 4 13 2 8 -6 -5 -7 -2 -9 8 -5 10 3 18 -1 21 -13 3 -13 0 -17 -9
-13 -10 4 -12 0 -8 -11 5 -12 2 -15 -12 -10 -11 4 -24 13 -31 21 -6 8 -14 10
-16 5 -6 -8 294 -192 313 -192 6 0 10 -4 10 -10 0 -5 5 -10 10 -10 13 0 194
-109 265 -158 79 -56 100 -88 135 -203 l20 -64 -6 53 c-4 32 -2 52 4 52 6 0
12 -6 15 -12 3 -10 7 -10 18 -2 14 11 77 26 91 21 4 -1 20 16 35 38 14 22 32
44 40 48 7 4 13 15 13 22 0 8 9 24 20 35 19 19 31 20 183 18 173 -3 241 8 273
43 12 13 13 19 4 19 -6 0 -21 11 -32 25 -11 14 -25 25 -33 25 -7 0 -30 8 -51
17 -22 9 -43 18 -49 19 -29 8 -156 54 -172 63 -24 13 -152 60 -211 77 -73 21
-211 70 -219 77 -3 4 -14 7 -24 7 -10 0 -43 11 -73 25 -30 14 -58 25 -61 25
-11 0 -119 51 -133 63 -8 6 -23 13 -35 14 -12 2 -24 7 -27 11 -3 5 -26 18 -52
30 -26 12 -51 29 -57 39 -6 10 -11 15 -11 11 0 -10 -78 31 -88 46 -4 7 -22 18
-39 25 -18 8 -33 19 -33 26 0 6 -12 18 -27 25 -16 8 -47 34 -70 58 -35 37 -46
43 -68 38 -14 -4 -25 -2 -25 4 0 5 8 10 18 10 13 1 10 6 -13 25 -30 25 -65 33
-65 16z m347 -557 c-3 -3 -12 -4 -19 -1 -8 3 -5 6 6 6 11 1 17 -2 13 -5z m30
-20 c-3 -3 -12 -4 -19 -1 -8 3 -5 6 6 6 11 1 17 -2 13 -5z m58 -34 c3 -5 1
-10 -4 -10 -6 0 -11 5 -11 10 0 6 2 10 4 10 3 0 8 -4 11 -10z m85 -40 c0 -5
-7 -10 -15 -10 -8 0 -15 5 -15 10 0 6 7 10 15 10 8 0 15 -4 15 -10z"/>
<path d="M3050 6030 c0 -5 5 -10 10 -10 6 0 10 5 10 10 0 6 -4 10 -10 10 -5 0
-10 -4 -10 -10z"/>
<path d="M5655 5781 c-22 -5 -38 -9 -35 -11 3 -1 73 -4 155 -5 153 -4 186 -10
244 -52 22 -16 23 -16 20 1 -2 10 -24 30 -49 44 -41 23 -57 25 -170 28 -69 1
-143 -1 -165 -5z"/>
<path d="M4100 5756 c0 -2 7 -9 15 -16 12 -10 15 -10 15 4 0 9 -7 16 -15 16
-8 0 -15 -2 -15 -4z"/>
<path d="M5230 5131 c0 -10 -6 -34 -13 -52 -8 -19 -24 -83 -36 -144 -36 -175
-73 -329 -83 -342 -5 -7 -23 -9 -42 -6 -22 3 -42 -1 -60 -12 -32 -21 -33 -42
-3 -55 26 -12 -118 -3 -174 10 -30 7 -26 8 29 9 64 1 83 16 35 27 -16 3 -44
12 -63 19 -19 8 -75 30 -125 49 -74 28 -226 93 -320 135 -11 5 -63 26 -115 46
-52 21 -128 51 -168 68 -68 28 -75 29 -115 17 -23 -7 -80 -19 -127 -27 -90
-14 -101 -16 -140 -26 -14 -3 -50 -9 -80 -12 -30 -3 -75 -11 -100 -19 -77 -23
-220 -45 -332 -50 -60 -3 -116 -10 -125 -15 -10 -6 -53 -20 -96 -32 -43 -12
-80 -26 -83 -31 -3 -4 -15 -8 -28 -8 -12 0 -26 -4 -32 -8 -5 -5 -29 -15 -54
-22 -25 -7 -52 -19 -60 -25 -8 -7 -53 -13 -100 -14 -47 -1 -91 -7 -98 -13 -9
-8 -17 -6 -30 6 -23 20 -32 20 -32 1 0 -21 -23 -19 -49 4 -15 13 -19 24 -14
37 6 16 2 15 -24 -6 -33 -26 -51 -63 -28 -53 8 2 16 11 19 19 10 25 27 16 20
-11 -7 -28 -2 -30 27 -15 20 11 22 7 10 -25 -13 -34 28 -54 154 -76 64 -11
120 -17 125 -14 6 4 13 -1 16 -9 3 -9 13 -16 20 -16 8 0 19 -12 25 -27 8 -21
7 -28 -6 -35 -8 -5 -15 -14 -15 -19 0 -6 -7 -17 -15 -26 -9 -8 -13 -18 -10
-21 3 -3 57 49 120 115 64 66 132 132 153 146 20 14 84 42 142 62 58 21 110
41 115 45 6 4 34 13 63 19 82 17 168 0 288 -58 91 -44 103 -53 122 -92 l22
-44 -6 40 c-9 51 -33 86 -78 110 -37 20 -46 35 -23 35 20 0 94 -56 109 -82 35
-63 72 -192 87 -301 13 -92 13 -432 1 -497 -8 -40 -8 -36 -6 30 1 41 -3 102
-9 135 l-12 60 -3 -45 c-5 -68 0 -158 10 -225 5 -33 14 -114 20 -180 11 -118
52 -349 70 -392 6 -15 21 -23 52 -28 24 -3 76 -13 116 -21 40 -8 77 -12 82 -9
13 8 27 85 44 240 51 467 47 682 -20 1084 -13 79 -21 147 -19 151 9 15 54 17
59 4 3 -8 12 -11 21 -8 21 8 38 -14 84 -111 134 -282 180 -534 168 -910 -7
-219 -48 -453 -107 -612 -16 -43 -86 -188 -164 -339 -25 -49 -35 -54 -86 -42
-72 17 -78 21 -40 28 32 7 21 14 -17 13 -7 -1 -13 3 -13 8 0 5 5 9 10 9 6 0
10 18 10 39 0 22 4 42 8 45 11 6 2 76 -9 76 -5 0 -9 -4 -9 -9 0 -5 -7 -17 -16
-26 -13 -12 -14 -19 -5 -28 6 -6 10 -27 10 -46 -1 -28 -3 -30 -6 -11 -3 14
-11 32 -19 41 -8 9 -11 19 -7 22 3 4 1 7 -5 7 -14 0 -15 -41 -3 -90 5 -19 12
-47 15 -62 5 -23 12 -28 38 -28 18 0 59 -8 91 -17 54 -16 68 -27 160 -123 55
-58 110 -121 122 -140 39 -60 91 -109 111 -104 11 2 88 8 173 13 118 7 165 6
203 -4 32 -8 81 -11 134 -7 83 5 84 5 166 -38 94 -48 150 -91 223 -169 75 -80
84 -100 98 -202 l13 -93 149 -48 c388 -125 466 -148 570 -163 61 -8 122 -18
138 -21 17 -4 27 -2 27 5 0 6 -17 11 -38 11 -21 0 -42 4 -48 8 -5 5 -45 14
-89 21 -74 12 -123 32 -118 48 2 4 -7 8 -20 8 -12 0 -21 5 -19 13 1 7 -5 15
-13 18 -24 9 -18 24 10 24 30 0 33 16 5 25 -11 3 -20 11 -20 16 0 5 9 9 20 9
27 0 25 16 -2 25 -13 3 -18 8 -13 11 6 2 9 59 8 146 -4 216 -8 252 -32 286
-20 29 -21 34 -10 208 8 146 5 367 -6 469 -1 11 -3 49 -4 84 -2 97 -12 66 -22
-66 -10 -143 -25 -213 -46 -213 -8 0 -12 -4 -9 -9 4 -5 2 -20 -3 -33 -8 -23
-8 -22 -15 7 -3 17 -8 148 -11 293 -2 144 -7 267 -10 272 -3 5 -21 103 -40
219 -19 116 -46 254 -60 308 -33 124 -114 402 -125 428 -39 92 -60 162 -60
196 0 24 -4 38 -10 34 -5 -3 -10 2 -10 12 0 11 -5 24 -12 31 -7 7 -8 12 -3 12
5 0 0 7 -11 16 -13 11 -15 17 -7 20 9 4 5 17 -14 42 -15 20 -28 39 -29 41 -2
1 -13 -4 -26 -13 -12 -9 -31 -16 -42 -16 -11 0 -28 -8 -39 -17 -20 -19 -115
-24 -154 -9 -16 7 -16 9 -2 19 8 7 20 19 25 28 20 37 145 166 247 255 59 52
107 101 107 109 0 8 -22 26 -48 39 -27 13 -71 43 -100 65 -28 23 -54 41 -57
41 -2 0 -31 20 -62 43 -73 55 -145 97 -166 97 -10 0 -17 -8 -17 -19z m-165
-579 c-7 -8 -35 7 -35 18 0 6 7 6 20 -2 10 -7 17 -14 15 -16z m175 -96 c0 -8
-4 -18 -10 -21 -5 -3 -10 3 -10 14 0 12 5 21 10 21 6 0 10 -6 10 -14z m310
-31 c0 -2 -11 -21 -25 -41 -14 -21 -28 -48 -31 -61 -4 -13 -10 -23 -15 -23 -5
0 -9 -8 -9 -18 0 -29 -10 -32 -33 -11 -14 13 -23 15 -28 8 -5 -8 -9 -8 -14 1
-4 7 -1 16 6 21 8 5 10 9 5 9 -6 0 -1 7 10 16 13 11 15 17 7 20 -21 9 -15 21
13 28 19 5 25 12 21 26 -3 10 0 21 7 24 15 6 86 7 86 1z m-310 -46 c0 -41 -16
-36 -17 6 -1 19 3 32 8 29 5 -3 9 -18 9 -35z m129 -98 c12 -16 34 -31 50 -34
17 -4 37 -17 45 -29 15 -23 31 -113 39 -225 5 -63 5 -63 -21 -62 -15 0 -45 3
-67 7 l-40 7 -2 55 c-2 30 -7 64 -12 75 -14 29 -43 205 -37 221 8 22 23 17 45
-15z m-137 -26 c-2 -14 -8 -22 -13 -19 -5 3 -5 14 1 25 14 26 18 24 12 -6z
m-132 -82 c0 -21 3 -49 7 -62 4 -18 3 -22 -8 -19 -8 3 -13 11 -11 18 1 7 -2
18 -9 26 -6 8 -8 21 -4 31 5 10 7 24 6 31 -1 6 3 12 9 12 5 0 10 -17 10 -37z
m50 -13 c0 -5 -4 -10 -10 -10 -5 0 -10 5 -10 10 0 6 5 10 10 10 6 0 10 -4 10
-10z m127 -72 c-3 -8 -6 -5 -6 6 -1 11 2 17 5 13 3 -3 4 -12 1 -19z m-153 -37
c-4 -20 -2 -30 10 -34 17 -7 22 -37 6 -37 -14 0 -43 68 -36 85 10 27 26 16 20
-14z m96 -161 c0 -5 -4 -10 -10 -10 -5 0 -10 5 -10 10 0 6 5 10 10 10 6 0 10
-4 10 -10z m17 -171 c1 -38 -1 -68 -6 -65 -10 7 -22 112 -14 132 10 27 17 4
20 -67z m-688 -439 c31 -227 36 -300 23 -300 -14 0 -19 23 -27 123 -4 42 -10
77 -15 77 -4 0 -8 10 -7 23 0 12 -2 90 -6 172 -7 168 0 148 32 -95z m708 208
c-3 -8 -6 -5 -6 6 -1 11 2 17 5 13 3 -3 4 -12 1 -19z m16 -65 c3 -24 1 -43 -4
-43 -5 0 -9 21 -9 47 0 56 5 54 13 -4z m7 -79 c0 -8 -4 -12 -10 -9 -5 3 -10
10 -10 16 0 5 5 9 10 9 6 0 10 -7 10 -16z m14 -40 c10 -26 7 -34 -13 -34 -26
0 -36 17 -21 35 16 19 26 19 34 -1z m-631 -266 c1 -83 -2 -121 -10 -129 -11
-10 -13 23 -12 166 1 138 3 168 10 130 5 -27 10 -103 12 -167z m697 77 c0 -7
12 -20 26 -30 26 -17 26 -19 19 -89 -3 -39 -10 -74 -13 -77 -4 -4 -70 -1 -146
7 -77 7 -143 11 -147 9 -17 -11 -28 25 -23 81 7 85 6 84 70 84 47 0 57 3 61
19 4 16 15 21 52 23 54 4 101 -9 101 -27z m-135 -211 c50 -4 106 -8 125 -8 35
-1 35 -2 33 -44 -4 -101 -35 -388 -42 -395 -4 -4 -7 35 -5 87 2 85 0 95 -17
99 -12 3 -19 0 -19 -10 0 -8 5 -11 11 -8 6 5 6 0 -1 -12 -7 -10 -23 -20 -36
-21 -27 -2 -30 7 -11 27 9 11 7 10 -12 0 -40 -23 -71 -51 -65 -61 9 -15 -3 -9
-17 9 -12 14 -12 16 0 8 11 -6 13 -2 7 21 -4 16 -7 35 -8 42 -1 6 -10 12 -22
12 -15 0 -17 -3 -8 -12 15 -15 16 -32 2 -23 -5 3 -10 -2 -10 -11 0 -10 -3 -14
-7 -10 -4 3 -6 73 -5 153 4 193 -9 185 -22 -14 -1 -23 -5 -45 -9 -49 -3 -4 -2
-16 4 -26 9 -16 7 -24 -6 -37 -16 -15 -17 -11 -11 63 3 43 6 115 6 158 l0 80
28 -6 c15 -3 68 -9 117 -12z m-140 -336 c-2 -18 -7 -66 -11 -106 -4 -40 -9
-71 -11 -68 -8 8 9 206 18 206 5 0 7 -15 4 -32z m151 -10 c1 -11 -3 -15 -12
-11 -17 6 -19 36 -2 31 6 -2 12 -11 14 -20z m101 -150 c-3 -7 -5 -2 -5 12 0
14 2 19 5 13 2 -7 2 -19 0 -25z m0 -40 c-3 -8 -6 -5 -6 6 -1 11 2 17 5 13 3
-3 4 -12 1 -19z m-267 -39 c0 -11 -4 -17 -10 -14 -5 3 -10 15 -10 26 0 11 5
17 10 14 6 -3 10 -15 10 -26z m257 -41 c-3 -8 -6 -5 -6 6 -1 11 2 17 5 13 3
-3 4 -12 1 -19z m0 -65 c-3 -10 -5 -4 -5 12 0 17 2 24 5 18 2 -7 2 -21 0 -30z"/>
<path d="M5485 4400 c3 -5 8 -10 11 -10 2 0 4 5 4 10 0 6 -5 10 -11 10 -5 0
-7 -4 -4 -10z"/>
<path d="M5450 4347 c0 -13 -5 -28 -12 -35 -9 -9 -9 -15 1 -24 11 -11 13 -10
9 2 -2 8 4 23 14 34 22 24 23 46 3 46 -9 0 -15 -9 -15 -23z"/>
<path d="M5375 4180 c3 -5 8 -10 11 -10 2 0 4 5 4 10 0 6 -5 10 -11 10 -5 0
-7 -4 -4 -10z"/>
<path d="M5400 4130 c0 -5 5 -10 11 -10 5 0 7 5 4 10 -3 6 -8 10 -11 10 -2 0
-4 -4 -4 -10z"/>
<path d="M5320 2866 c0 -2 9 -6 20 -9 11 -3 20 -1 20 4 0 5 -9 9 -20 9 -11 0
-20 -2 -20 -4z"/>
<path d="M2416 4673 c-6 -14 -5 -15 5 -6 7 7 10 15 7 18 -3 3 -9 -2 -12 -12z"/>
<path d="M3925 3110 c9 -52 23 -95 30 -88 8 7 -16 111 -27 123 -7 7 -8 -5 -3
-35z"/>
<path d="M8712 3102 c-34 -52 -50 -102 -34 -102 13 0 19 9 54 82 33 71 21 84
-20 20z"/>
<path d="M6044 3075 c7 -117 6 -114 17 -80 10 31 3 98 -12 125 -5 9 -7 -9 -5
-45z"/>
<path d="M3966 2991 c-4 -7 -5 -15 -2 -18 9 -9 19 4 14 18 -4 11 -6 11 -12 0z"/>
<path d="M8607 2933 c-68 -111 -170 -415 -183 -550 -6 -53 -4 -63 9 -63 48 0
153 238 251 570 15 50 15 52 -4 57 -11 3 -20 9 -20 14 0 23 -32 5 -53 -28z"/>
<path d="M3974 2924 c4 -16 12 -33 18 -39 7 -7 8 -3 4 12 -5 15 -1 25 11 32
10 6 13 11 6 11 -6 0 -19 3 -29 7 -15 5 -16 2 -10 -23z"/>
<path d="M3990 2865 c0 -6 7 -30 15 -55 l15 -45 -5 45 c-3 25 -10 49 -16 55
-6 5 -9 5 -9 0z"/>
<path d="M4091 2854 c0 -11 3 -14 6 -6 3 7 2 16 -1 19 -3 4 -6 -2 -5 -13z"/>
<path d="M7381 1874 c0 -11 3 -14 6 -6 3 7 2 16 -1 19 -3 4 -6 -2 -5 -13z"/>
<path d="M6495 1420 c3 -5 8 -10 11 -10 2 0 4 5 4 10 0 6 -5 10 -11 10 -5 0
-7 -4 -4 -10z"/>
<path d="M6300 1264 c20 -21 106 -111 193 -199 86 -88 169 -173 184 -188 l28
-28 140 2 c172 1 165 2 165 -15 0 -8 -6 -16 -12 -19 -7 -2 5 -8 27 -12 22 -4
50 -13 62 -21 37 -23 43 -17 39 39 -2 28 -5 67 -5 85 -1 29 -3 32 -20 22 -38
-20 -53 -13 -46 23 3 17 8 49 10 70 3 20 11 50 20 67 8 16 15 38 15 49 0 11 5
23 11 26 5 4 9 10 7 15 -4 10 -149 120 -159 120 -4 0 -5 -9 -2 -21 4 -12 0
-25 -8 -30 -10 -7 -7 -9 11 -7 19 2 25 -2 26 -17 1 -11 4 -37 8 -59 8 -51 -6
-67 -51 -60 -24 4 -33 2 -29 -5 5 -7 -4 -9 -26 -4 l-33 6 19 -21 c15 -17 16
-22 5 -22 -8 0 -34 23 -58 50 -55 64 -66 58 -14 -7 51 -65 80 -130 65 -145 -9
-9 -15 -9 -24 0 -18 18 -28 15 -28 -9 0 -12 -4 -17 -11 -14 -6 4 -8 13 -5 21
8 20 -7 17 -27 -6 -20 -24 -33 -25 -41 -5 -3 8 -12 12 -21 9 -8 -4 -17 1 -21
10 -7 17 -84 100 -84 90 0 -4 -7 -1 -16 7 -8 7 -13 21 -10 32 3 15 0 18 -14
14 -12 -3 -20 2 -23 15 -3 11 -10 17 -15 14 -6 -3 -8 2 -5 12 4 17 -26 62 -43
62 -4 0 -25 12 -45 26 -20 14 -59 31 -85 39 -27 7 -58 16 -69 21 -14 5 -10 -3
15 -32z"/>
<path d="M5993 1209 c9 -13 22 -34 27 -47 11 -26 157 -172 171 -172 5 0 9 -4
9 -10 0 -5 -5 -10 -11 -10 -5 0 -7 -5 -4 -10 5 -8 11 -7 21 1 17 14 54 -7 96
-52 38 -43 95 -79 123 -79 25 0 36 20 13 20 -19 1 -62 41 -83 78 -11 18 -25
32 -32 32 -7 0 -13 4 -13 8 0 8 -34 46 -137 155 -20 21 -42 36 -49 33 -7 -3
-15 2 -18 10 -3 8 -15 14 -26 14 -11 0 -20 4 -20 8 0 4 -15 14 -32 22 -18 7
-37 16 -43 18 -5 3 -2 -6 8 -19z"/>
<path d="M5550 1209 c0 -30 34 -199 51 -257 10 -34 19 -71 19 -82 0 -10 6 -22
13 -27 12 -8 357 -11 357 -4 0 3 -17 25 -38 50 -21 25 -66 87 -100 136 -56 83
-111 135 -140 135 -7 0 -12 3 -12 8 0 4 -28 16 -63 26 -34 11 -68 21 -74 24
-7 2 -13 -2 -13 -9z"/>
<path d="M6745 1170 c3 -5 8 -10 11 -10 2 0 4 5 4 10 0 6 -5 10 -11 10 -5 0
-7 -4 -4 -10z"/>
<path d="M3688 1143 c7 -3 16 -2 19 1 4 3 -2 6 -13 5 -11 0 -14 -3 -6 -6z"/>
<path d="M3730 1119 c0 -5 5 -7 10 -4 6 3 10 8 10 11 0 2 -4 4 -10 4 -5 0 -10
-5 -10 -11z"/>
<path d="M3670 1100 c20 -13 40 -13 40 0 0 6 -12 10 -27 10 -22 0 -25 -2 -13
-10z"/>
<path d="M3197 884 c-4 -4 -7 -16 -7 -26 0 -14 6 -19 23 -16 14 2 22 10 22 23
0 20 -25 32 -38 19z"/>
<path d="M6244 884 c-12 -5 -7 -44 5 -44 12 0 31 23 31 37 0 13 -15 16 -36 7z"/>
<path d="M6543 843 c9 -2 25 -2 35 0 9 3 1 5 -18 5 -19 0 -27 -2 -17 -5z"/>
<path d="M6785 820 c4 -6 11 -8 16 -5 14 9 11 15 -7 15 -8 0 -12 -5 -9 -10z"/>
<path d="M5848 803 c23 -2 59 -2 80 0 20 2 1 4 -43 4 -44 0 -61 -2 -37 -4z"/>
<path d="M7013 723 c-11 -28 61 -80 121 -87 75 -9 177 -6 171 5 -4 5 -28 9
-55 9 -65 0 -94 15 -110 56 -13 33 -16 34 -67 34 -41 0 -55 -4 -60 -17z"/>
<path d="M7180 680 c0 -5 5 -10 11 -10 5 0 7 5 4 10 -3 6 -8 10 -11 10 -2 0
-4 -4 -4 -10z"/>
<path d="M6667 673 c-4 -3 -7 -11 -7 -17 0 -6 5 -5 12 2 6 6 9 14 7 17 -3 3
-9 2 -12 -2z"/>
<path d="M4180 361 c0 -5 7 -14 15 -21 8 -7 29 -37 47 -68 41 -71 48 -51 12
33 -22 54 -31 65 -51 65 -12 0 -23 -4 -23 -9z"/>
<path d="M3140 321 l-35 -7 25 -13 c14 -8 64 -47 112 -88 47 -40 91 -73 98
-73 6 0 -21 33 -60 72 -69 72 -84 98 -55 98 8 0 15 5 15 10 0 11 -44 11 -100
1z"/>
<path d="M1917 3373 c-2 -4 -4 -19 -2 -33 2 -29 19 -35 82 -25 41 6 44 9 41
33 -3 25 -7 27 -60 30 -31 2 -58 -1 -61 -5z"/>
<path d="M2095 3341 c-6 -11 9 -23 19 -14 9 9 7 23 -3 23 -6 0 -12 -4 -16 -9z"/>
<path d="M1985 3271 c-37 -8 -61 -51 -45 -80 7 -14 7 -27 -2 -47 -11 -23 -10
-28 11 -45 37 -30 78 -25 101 13 l19 32 10 -27 c8 -21 17 -27 39 -27 36 0 52
31 52 100 0 71 -22 90 -97 89 -32 -1 -71 -4 -88 -8z"/>
<path d="M1750 2773 c-24 -8 -50 -19 -140 -61 -78 -37 -110 -48 -165 -56 -19
-3 -20 -9 -17 -180 3 -172 3 -178 -17 -183 -12 -3 -21 -8 -21 -12 0 -11 51
-30 65 -25 24 9 25 34 14 264 l-3 65 45 8 c24 4 72 6 106 5 68 -3 73 1 73 51
0 44 33 66 96 65 43 0 55 3 60 18 11 36 -43 59 -96 41z"/>
<path d="M1304 2661 c-48 -25 -54 -50 -54 -213 l0 -148 65 0 c45 0 65 4 65 13
3 68 -2 309 -6 335 -7 36 -21 39 -70 13z"/>
<path d="M1796 2621 c-4 -5 -2 -12 3 -15 5 -4 12 -2 15 3 4 5 2 12 -3 15 -5 4
-12 2 -15 -3z"/>
<path d="M1647 2523 c1 -37 5 -95 7 -128 3 -33 8 -125 12 -205 3 -80 8 -163
10 -185 2 -22 6 -116 10 -210 l6 -170 -41 -12 c-22 -7 -52 -13 -66 -13 -14 0
-28 -7 -32 -16 -4 -11 -13 -14 -29 -10 -16 4 -30 0 -45 -15 -16 -16 -23 -18
-35 -8 -8 6 -14 8 -14 3 -1 -5 -3 -42 -6 -82 -7 -89 -1 -118 26 -125 16 -4 24
1 32 19 9 20 8 29 -9 52 -20 28 -36 85 -26 95 8 9 43 -12 43 -26 0 -7 7 -25
15 -41 8 -15 12 -32 9 -37 -7 -13 16 -40 27 -33 5 3 9 -4 9 -15 0 -11 5 -23
12 -27 7 -5 5 -11 -7 -21 -25 -18 -5 -17 47 3 125 47 216 93 222 111 2 10 7
53 11 95 7 76 5 85 -32 147 -2 2 -11 -3 -21 -12 -17 -16 -18 -14 -19 21 -1 20
-4 55 -8 77 -5 31 -4 36 5 22 6 -9 9 -21 6 -25 -6 -11 22 -47 31 -38 4 4 2 16
-5 26 -9 16 -9 21 5 28 12 7 14 17 9 43 -11 52 -8 89 9 115 8 13 18 44 21 68
8 54 -14 347 -27 361 -5 5 -9 20 -9 35 -1 23 -2 24 -14 8 -31 -41 -75 -7 -96
72 -7 30 -14 68 -14 85 -1 19 -7 31 -17 33 -13 2 -15 -8 -12 -65z"/>
<path d="M1340 2244 c-13 -23 -12 -27 3 -35 14 -8 17 -25 17 -99 0 -54 4 -90
10 -90 6 0 10 48 9 125 -1 131 -10 154 -39 99z"/>
<path d="M1432 2239 c-21 -8 -23 -13 -16 -41 4 -18 9 -44 10 -58 1 -14 3 -29
3 -35 1 -5 6 -3 11 5 9 13 11 13 20 0 7 -11 10 6 10 57 0 39 -3 74 -7 76 -5 3
-18 1 -31 -4z"/>
<path d="M1257 2148 c-29 -35 -24 -52 14 -46 18 2 25 10 27 32 5 45 -11 50
-41 14z"/>
<path d="M1145 2044 c-97 -88 -180 -144 -360 -239 -118 -62 -155 -85 -155 -94
0 -5 44 -37 98 -72 53 -35 115 -78 136 -96 22 -18 46 -33 54 -33 16 0 42 27
110 116 26 33 76 93 112 133 36 40 67 78 70 84 8 18 0 247 -8 247 -4 -1 -29
-21 -57 -46z"/>
<path d="M1450 2080 c0 -5 5 -10 11 -10 5 0 7 5 4 10 -3 6 -8 10 -11 10 -2 0
-4 -4 -4 -10z"/>
<path d="M1240 1980 c0 -49 4 -90 9 -90 5 0 19 12 30 26 16 21 21 41 21 90 l0
64 -30 0 -30 0 0 -90z"/>
<path d="M1260 1815 c-25 -41 -20 -68 12 -63 19 2 24 10 26 42 5 55 -11 65
-38 21z"/>
<path d="M1970 1783 c0 -23 15 -39 24 -25 3 5 -1 18 -9 28 -14 18 -14 18 -15
-3z"/>
<path d="M1169 1713 c-13 -15 -48 -57 -78 -93 -29 -36 -71 -84 -92 -107 -21
-23 -39 -46 -39 -51 0 -5 26 -31 57 -58 32 -27 80 -69 108 -93 27 -24 64 -55
80 -69 17 -14 42 -36 57 -50 25 -23 30 -24 53 -12 22 12 30 12 47 1 11 -7 24
-9 29 -4 7 7 13 237 10 387 l-1 58 -54 -6 c-30 -4 -70 -4 -90 -1 -35 7 -35 8
-38 63 -2 30 -8 57 -14 59 -5 2 -21 -9 -35 -24z"/>
<path d="M1250 1684 c0 -33 2 -35 27 -32 34 4 43 36 17 55 -31 22 -44 16 -44
-23z"/>
<path d="M1500 1346 c0 -16 18 -31 27 -22 3 3 -2 12 -11 21 -14 14 -16 14 -16
1z"/>
<path d="M1495 1290 c-3 -5 3 -10 14 -10 12 0 21 5 21 10 0 6 -6 10 -14 10 -8
0 -18 -4 -21 -10z"/>
<path d="M1750 1220 c0 -5 5 -10 10 -10 6 0 10 5 10 10 0 6 -4 10 -10 10 -5 0
-10 -4 -10 -10z"/>
<path d="M1482 1147 c3 -26 2 -50 -3 -53 -5 -3 -9 2 -9 11 0 12 -7 15 -27 13
-21 -2 -29 -9 -31 -27 -3 -18 0 -22 11 -18 8 3 23 -1 34 -8 10 -8 13 -15 8
-15 -6 0 -16 5 -23 12 -7 7 -12 9 -12 5 0 -9 38 -47 47 -47 4 0 17 -12 30 -27
28 -35 28 -25 3 96 -22 104 -36 133 -28 58z"/>
<path d="M1930 1160 c0 -23 22 -27 39 -7 13 16 5 27 -21 27 -11 0 -18 -7 -18
-20z"/>
<path d="M1365 1130 c3 -5 13 -10 21 -10 8 0 12 5 9 10 -3 6 -13 10 -21 10 -8
0 -12 -4 -9 -10z"/>
<path d="M1640 1079 c0 -10 15 -15 50 -16 28 -1 50 2 50 7 0 6 -8 10 -19 10
-10 0 -33 3 -50 6 -23 5 -31 3 -31 -7z"/>
<path d="M1785 995 c-22 -7 -76 -21 -120 -31 -80 -18 -117 -34 -79 -34 24 0
109 -52 144 -89 14 -14 47 -44 73 -65 63 -52 71 -43 58 65 -6 46 -12 102 -13
123 -3 46 -9 49 -63 31z"/>
<path d="M1420 951 c0 -5 9 -7 20 -4 11 3 20 7 20 9 0 2 -9 4 -20 4 -11 0 -20
-4 -20 -9z"/>
<path d="M7655 490 c-3 -5 -1 -10 4 -10 6 0 11 5 11 10 0 6 -2 10 -4 10 -3 0
-8 -4 -11 -10z"/>
</g>
</svg>
